<svg width="25" height="26" viewBox="0 0 25 26" fill="none" xmlns="http://www.w3.org/2000/svg">
<path d="M24.4335 13.2403C24.4335 12.2496 24.3532 11.5266 24.1792 10.7769H12.8661V15.2485H19.5066C19.3728 16.3597 18.6498 18.0333 17.0432 19.1578L17.0207 19.3075L20.5977 22.0786L20.8455 22.1033C23.1214 20.0013 24.4335 16.9086 24.4335 13.2403Z" fill="#4285F4"/>
<path d="M12.8662 25.0218C16.1195 25.0218 18.8507 23.9507 20.8456 22.1032L17.0434 19.1577C16.0259 19.8672 14.6602 20.3626 12.8662 20.3626C9.67986 20.3626 6.97545 18.2607 6.0114 15.3555L5.8701 15.3675L2.15069 18.2459L2.10205 18.3812C4.08349 22.3173 8.15353 25.0218 12.8662 25.0218Z" fill="#34A853"/>
<path d="M6.01112 15.3555C5.75675 14.6058 5.60954 13.8024 5.60954 12.9724C5.60954 12.1423 5.75675 11.339 5.99774 10.5893L5.991 10.4296L2.22499 7.50488L2.10177 7.56349C1.28512 9.19688 0.816528 11.0311 0.816528 12.9724C0.816528 14.9137 1.28512 16.7478 2.10177 18.3812L6.01112 15.3555Z" fill="#FBBC05"/>
<path d="M12.8662 5.58194C15.1288 5.58194 16.6551 6.55927 17.5253 7.37601L20.9259 4.0557C18.8374 2.11441 16.1195 0.922852 12.8662 0.922852C8.15353 0.922852 4.08349 3.62726 2.10205 7.56338L5.99802 10.5892C6.97545 7.68392 9.67986 5.58194 12.8662 5.58194" fill="#EB4335"/>
</svg>
